<?xml version="1.0" encoding="UTF-8" standalone="no"?>
<svg
  xmlns:inkscape="http://www.inkscape.org/namespaces/inkscape"
  xmlns:rdf="http://www.w3.org/1999/02/22-rdf-syntax-ns#"
  xmlns="http://www.w3.org/2000/svg"
  xmlns:dc="http://purl.org/dc/elements/1.1/"
  xmlns:ns1="http://sozi.baierouge.fr"
  xmlns:cc="http://web.resource.org/cc/"
  xmlns:xlink="http://www.w3.org/1999/xlink"
  xmlns:sodipodi="http://sodipodi.sourceforge.net/DTD/sodipodi-0.dtd"
  id="svg1"
  sodipodi:docname="krec.svg"
  viewBox="0 0 60 60"
  sodipodi:version="0.32"
  _SVGFile__filename="oldscale/apps/krec.svg"
  version="1.0"
  y="0"
  x="0"
  inkscape:version="0.40"
  sodipodi:docbase="/home/danny/work/flat/SVG/mono/scalable/apps"
>
  <sodipodi:namedview
    id="base"
    bordercolor="#666666"
    inkscape:pageshadow="2"
    inkscape:window-y="0"
    pagecolor="#ffffff"
    inkscape:window-height="699"
    inkscape:zoom="3.8465619"
    inkscape:window-x="0"
    borderopacity="1.0"
    inkscape:current-layer="svg1"
    inkscape:cx="107.10378"
    inkscape:cy="13.819841"
    inkscape:window-width="1024"
    inkscape:pageopacity="0.0"
  />
  <g
    id="g1705"
    style="stroke:#ffffff"
  >
    <path
      id="path1077"
      style="stroke-linejoin:round;stroke:#ffffff;stroke-linecap:round;stroke-width:8.125;fill:none"
      d="m15.836 41.618c-4.461 9.416-11.151 13.628-11.151 13.628"
    />
    <path
      id="path1078"
      style="stroke-linejoin:round;stroke:#ffffff;stroke-linecap:round;stroke-width:8.125;fill:none"
      d="m44.438 4.75c-2.915-0.131-5.897 0.8776-8.219 3-3.316 3.031-4.305 7.552-3.125 11.594l-19.969 18.25c-0.796 0.728-0.853 1.953-0.125 2.75l3.875 4.25c0.728 0.796 1.954 0.853 2.75 0.125l19.875-18.125c3.973 1.671 8.705 1.066 12.094-2.032 4.644-4.244 4.994-11.449 0.75-16.093-2.123-2.3223-4.992-3.588-7.906-3.719z"
    />
  </g>
  <g
    id="g1072"
    transform="matrix(.97368 0 0 .97368 .63754 .69375)"
  >
    <path
      id="path971"
      style="stroke-linejoin:round;stroke:#000000;stroke-linecap:round;stroke-dasharray:3.2094691 3.2094691;stroke-width:3.2095;fill:none"
      transform="translate(-.42358 1.1164)"
      d="m16.032 40.914c-4.58 9.67-11.451 13.996-11.451 13.996"
    />
    <path
      id="rect969"
      style="stroke-linejoin:round;fill-rule:evenodd;stroke:#000000;stroke-linecap:round;stroke-width:3.2095;fill:#ffffff"
      d="m11.197 18.484v33.408c0 1.108 0.892 2 2 2h5.925c1.108 0 2-0.892 2-2v-33.408c0-1.108-9.925-1.108-9.925 0z"
      transform="matrix(.67465 .73814 -.73814 .67465 43.564 -5.3796)"
    />
    <path
      id="path970"
      style="stroke-linejoin:round;fill-rule:evenodd;stroke:#000000;stroke-linecap:round;stroke-width:3.2095;fill:#000000"
      d="m52.348 24.515c-4.769 4.36-12.179 4.027-16.538-0.743-4.36-4.77-4.027-12.179 0.743-16.538 4.77-4.3597 12.179-4.0268 16.538 0.7429 4.36 4.7701 4.027 12.179-0.743 16.538z"
    />
  </g>
  <metadata>
    <rdf:RDF>
      <cc:Work>
        <dc:format>image/svg+xml</dc:format>
        <dc:type
          rdf:resource="http://purl.org/dc/dcmitype/StillImage"
        />
        <cc:license
          rdf:resource="http://creativecommons.org/licenses/publicdomain/"
        />
        <dc:publisher>
          <cc:Agent
            rdf:about="http://openclipart.org/"
          >
            <dc:title>Openclipart</dc:title>
          </cc:Agent>
        </dc:publisher>
      </cc:Work>
      <cc:License
        rdf:about="http://creativecommons.org/licenses/publicdomain/"
      >
        <cc:permits
          rdf:resource="http://creativecommons.org/ns#Reproduction"
        />
        <cc:permits
          rdf:resource="http://creativecommons.org/ns#Distribution"
        />
        <cc:permits
          rdf:resource="http://creativecommons.org/ns#DerivativeWorks"
        />
      </cc:License>
    </rdf:RDF>
  </metadata>
</svg>